<svg width="33" height="46" xmlns="http://www.w3.org/2000/svg"><path d="M6.05 8.75v13.427l8.749 7.37V8.75l-2.87 2.447v12.578l-2.94-2.393V11.197zM14.799 46V32.58L6.05 25.21V46l2.87-2.44V30.981l2.939 2.393v10.184zm2.773-37.25v20.797l8.755-7.37V8.75h-8.755zm5.816 12.632-2.94 2.413V11.197h2.94v10.185zM3.043 4.242h26.915v2.502H3.043zm26.914-1.74H3.043L0 0h33zM23.45 43.56 26.327 46v-3.168l-2.877-2.448v3.175zm-5.878-10.98V46l2.939-2.44v-10.2l2.939-2.393v8.396l2.877 2.448V25.21l-8.755 7.37z" fill="#0055B8"/></svg>